<?xml version="1.0" encoding="UTF-8" standalone="no"?>
<svg
   id="svg441891"
   viewBox="0 0 431.89813 136.22238"
   height="136.22238"
   width="431.89813"
   version="1.1"
   sodipodi:docname="logo_white.svg"
   inkscape:version="1.1.2 (0a00cf5339, 2022-02-04)"
   xmlns:inkscape="http://www.inkscape.org/namespaces/inkscape"
   xmlns:sodipodi="http://sodipodi.sourceforge.net/DTD/sodipodi-0.dtd"
   xmlns:xlink="http://www.w3.org/1999/xlink"
   xmlns="http://www.w3.org/2000/svg"
   xmlns:svg="http://www.w3.org/2000/svg"
   xmlns:rdf="http://www.w3.org/1999/02/22-rdf-syntax-ns#"
   xmlns:cc="http://creativecommons.org/ns#"
   xmlns:dc="http://purl.org/dc/elements/1.1/">
  <sodipodi:namedview
     id="namedview299"
     pagecolor="#000000"
     bordercolor="#666666"
     borderopacity="1.0"
     inkscape:pageshadow="2"
     inkscape:pageopacity="0"
     inkscape:pagecheckerboard="0"
     showgrid="false"
     fit-margin-top="0"
     fit-margin-left="0"
     fit-margin-right="0"
     fit-margin-bottom="0"
     inkscape:zoom="1.8270769"
     inkscape:cx="184.99495"
     inkscape:cy="58.016167"
     inkscape:window-width="1920"
     inkscape:window-height="1011"
     inkscape:window-x="0"
     inkscape:window-y="32"
     inkscape:window-maximized="1"
     inkscape:current-layer="logo-group"
     lock-margins="true" />
  <metadata
     id="metadata441897">
    <rdf:rdf>
      <cc:work
         rdf:about="">
        <dc:format>image/svg+xml</dc:format>
        <dc:type
           rdf:resource="http://purl.org/dc/dcmitype/StillImage" />
      </cc:work>
    </rdf:rdf>
  </metadata>
  <defs
     id="defs441895">
    <inkscape:path-effect
       effect="bspline"
       id="path-effect4197"
       is_visible="true"
       lpeversion="1"
       weight="33.333333"
       steps="2"
       helper_size="0"
       apply_no_weight="true"
       apply_with_weight="true"
       only_selected="false" />
    <inkscape:path-effect
       effect="bspline"
       id="path-effect4197-2"
       is_visible="true"
       lpeversion="1"
       weight="33.333333"
       steps="2"
       helper_size="0"
       apply_no_weight="true"
       apply_with_weight="true"
       only_selected="false" />
    <inkscape:path-effect
       effect="bspline"
       id="path-effect4197-2-5"
       is_visible="true"
       lpeversion="1"
       weight="33.333333"
       steps="2"
       helper_size="0"
       apply_no_weight="true"
       apply_with_weight="true"
       only_selected="false" />
  </defs>
  <linearGradient
     spreadMethod="pad"
     y2="0.30000001"
     x2="-0.1"
     y1="1.2"
     x1="0.30000001"
     id="3d_gradient2-logo-68115eee-0aa5-45f3-be62-5f13e0aab4cc">
    <stop
       id="stop441872"
       stop-opacity="1"
       stop-color="#ffffff"
       offset="0%" />
    <stop
       id="stop441874"
       stop-opacity="1"
       stop-color="#000000"
       offset="100%" />
  </linearGradient>
  <linearGradient
     gradientTransform="rotate(-30)"
     spreadMethod="pad"
     y2="0.30000001"
     x2="-0.1"
     y1="1.2"
     x1="0.30000001"
     id="3d_gradient3-logo-68115eee-0aa5-45f3-be62-5f13e0aab4cc">
    <stop
       id="stop441877"
       stop-opacity="1"
       stop-color="#ffffff"
       offset="0%" />
    <stop
       id="stop441879"
       stop-opacity="1"
       stop-color="#cccccc"
       offset="50%" />
    <stop
       id="stop441881"
       stop-opacity="1"
       stop-color="#000000"
       offset="100%" />
  </linearGradient>
  <g
     id="logo-group"
     transform="translate(-296.01325,-315.83472)">
    <image
       xlink:href=""
       id="container"
       x="272"
       y="144"
       width="480"
       height="480"
       style="display:none" />
    <image
       xlink:href=""
       id="icon_container"
       style="display:none"
       x="0"
       y="0"
       width="0"
       height="0" />
    <g
       id="slogan"
       style="font-style:normal;font-weight:400;font-size:32px;line-height:1;font-family:Raleway;font-variant-ligatures:none;text-align:center;text-anchor:middle" />
    <g
       id="title"
       style="font-style:normal;font-weight:700;font-size:72px;line-height:1;font-family:'Brandmark Sans 4 Spectrum';font-variant-ligatures:normal;text-align:center;text-anchor:middle;fill:#ffffff">
      <g
         id="path441900"
         aria-label="a"
         transform="matrix(1.86,0,0,1.86,-440.24984,409.4448)"
         style="fill:#ffffff">
        <rect
           x="107.1382"
           y="84.156303"
           class="c3"
           width="8.7075996"
           height="31.687201"
           transform="translate(311.6862,-115.83629)"
           stroke-width="0"
           stroke-linejoin="miter"
           stroke-miterlimit="2"
           fill="#a7d135"
           stroke="#a7d135"
           id="rect251"
           style="fill:#ffffff" />
        <path
           class="c1"
           d="m 107.1382,85.8562 c -2.2117,-1.1206 -4.6566,-1.7029 -7.136,-1.6999 -6.5526,-0.0017 -12.4301,4.03069 -14.787,10.1447 -2.3569,6.1143 -0.7069,13.0484 4.15141,17.44559 4.8582,4.3972 11.922,5.3499 17.7716,2.397 5.3363,-2.6966 8.7029,-8.1648 8.7077,-14.1438 C 115.841,94.021 112.4744,88.553 107.1382,85.8562 Z m -4.40531,20.7373 c -2.66669,1.1045 -5.7363,0.4942 -7.7773,-1.5468 -2.0411,-2.0411 -2.6516,-5.1109 -1.5469,-7.7774 1.1046,-2.667 3.7071,-4.4055 6.5935,-4.4053 3.9392,0.0044 7.1315,3.1968 7.136,7.1358 1.1e-4,2.8867 -1.73849,5.489 -4.4053,6.5937 z"
           transform="translate(311.6862,-115.83629)"
           stroke-width="0"
           stroke-linejoin="miter"
           stroke-miterlimit="2"
           fill="#005a2e"
           stroke="#005a2e"
           id="path253"
           style="fill:#ffffff" />
        <path
           class="c2"
           d="m 107.1382,85.8562 v 28.2874 c 5.3363,-2.6966 8.7029,-8.1648 8.7077,-14.1438 -0.005,-5.9788 -3.3715,-11.4468 -8.7077,-14.1436 z"
           transform="translate(311.6862,-115.83629)"
           stroke-width="0"
           stroke-linejoin="miter"
           stroke-miterlimit="2"
           fill="#009b45"
           stroke="#009b45"
           id="path255"
           style="fill:#ffffff" />
      </g>
      <g
         id="path441902"
         aria-label="u"
         transform="matrix(1.86,0,0,1.86,-440.24984,409.4448)"
         style="fill:#ffffff">
        <path
           class="c1"
           d="m 105.2132,84.1453 v 17.7883 c 0,2.8793 -2.3342,5.2135 -5.2135,5.2135 -2.8792,0 -5.2135,-2.33421 -5.2135,-5.2135 V 84.1453 h -8.7071 v 17.7883 c 2.1e-4,4.6274 2.29971,8.9523 6.1358,11.5402 3.8362,2.5877 8.7076,3.1003 12.9983,1.3674 5.2582,-2.1302 8.7014,-7.2343 8.7077,-12.9076 V 84.1453 Z"
           transform="translate(347.1664,-115.8253)"
           stroke-width="0"
           stroke-linejoin="miter"
           stroke-miterlimit="2"
           fill="#005a2e"
           stroke="#005a2e"
           id="path258"
           style="fill:#ffffff" />
        <rect
           x="105.2132"
           y="84.145302"
           class="c3"
           width="8.7076998"
           height="31.7094"
           transform="translate(347.1664,-115.8253)"
           stroke-width="0"
           stroke-linejoin="miter"
           stroke-miterlimit="2"
           fill="#a7d135"
           stroke="#a7d135"
           id="rect260"
           style="fill:#ffffff" />
        <path
           class="c2"
           d="m 105.2132,84.1453 v 17.7883 12.9076 c 5.2582,-2.1302 8.7014,-7.2343 8.7077,-12.9076 V 84.1453 Z"
           transform="translate(347.1664,-115.8253)"
           stroke-width="0"
           stroke-linejoin="miter"
           stroke-miterlimit="2"
           fill="#009b45"
           stroke="#009b45"
           id="path262"
           style="fill:#ffffff" />
      </g>
      <g
         id="path441904"
         aria-label="t"
         transform="matrix(1.86,0,0,1.86,-440.24984,409.4448)"
         style="fill:#ffffff">
        <path
           class="c1"
           d="m 103.5329,74.8287 h -8.7076 v 41.82111 c 0.0053,4.70419 3.8176,8.5164 8.5218,8.5215 h 4.3539 v -8.7078 h -4.1681 z"
           transform="translate(373.18787,-125.1567)"
           stroke-width="0"
           stroke-linejoin="miter"
           stroke-miterlimit="2"
           fill="#005a2e"
           stroke="#005a2e"
           id="path265"
           style="fill:#ffffff" />
        <polygon
           class="c3"
           points="94.8253,102.1926 94.8253,102.1931 103.5329,102.1931 103.5329,102.1926 107.701,102.1926 107.701,93.485 103.5329,93.485 94.8253,93.485 92.299,93.485 92.299,102.1926 "
           transform="translate(373.18787,-125.1567)"
           stroke-width="0"
           stroke-linejoin="miter"
           stroke-miterlimit="2"
           fill="#a7d135"
           stroke="#a7d135"
           id="polygon267"
           style="fill:#ffffff" />
        <polygon
           class="c2"
           points="103.5329,102.1926 103.5329,93.485 94.8253,93.485 94.8253,102.1926 94.8253,102.1931 103.5329,102.1931 "
           transform="translate(373.18787,-125.1567)"
           stroke-width="0"
           stroke-linejoin="miter"
           stroke-miterlimit="2"
           fill="#009b45"
           stroke="#009b45"
           id="polygon269"
           style="fill:#ffffff" />
      </g>
      <g
         id="path441906"
         aria-label="o"
         style="display:none;fill:#ffffff">
        <path
           class="c1"
           d="m 100.0007,84.1562 c -6.4082,-3e-4 -12.1856,3.8599 -14.638,9.7803 -2.4523,5.9204 -1.0969,12.7351 3.43439,17.2664 4.5313,4.5313 11.346,5.8868 17.2665,3.43439 5.9204,-2.4524 9.7805,-8.2298 9.7802,-14.638 C 115.8335,91.2537 108.7463,84.1666 100.0007,84.1562 m 0,22.9785 c -2.88651,2.1e-4 -5.4888,-1.7384 -6.5935,-4.405 -1.1048,-2.6668 -0.4943,-5.7364 1.54659,-7.7774 2.041,-2.0411 5.1106,-2.6518 7.7774,-1.5472 2.6667,1.1045 4.4055,3.7068 4.4055,6.5933 -0.004,3.9392 -3.19669,7.1315 -7.13599,7.1363"
           transform="translate(400.98695,-115.8362)"
           stroke-width="0"
           stroke-linejoin="miter"
           stroke-miterlimit="2"
           fill="#005a2e"
           stroke="#005a2e"
           id="path272"
           style="fill:#ffffff" />
      </g>
      <g
         id="path441908"
         aria-label="g"
         transform="matrix(1.86,0,0,1.86,-440.28971,409.4448)"
         style="fill:#ffffff">
        <path
           class="c1"
           d="m 113.5736,72.705 c -2.2609,-0.0066 -4.43039,0.8919 -6.0248,2.4949 -0.149,0.1487 -0.2917,0.302 -0.4281,0.4599 5.1e-4,3.1e-4 9e-4,8e-4 0.001,10e-4 h -3e-4 c -1.3398,1.5445 -2.0746,3.5222 -2.0686,5.5667 v 7.3222 c -0.005,3.9392 -3.1968,7.1314 -7.136,7.136 h -5.76489 c -2.48841,-0.0022 -4.88891,0.9199 -6.73581,2.5877 1e-4,0 1e-4,2e-4 2e-4,2e-4 -2e-4,-2e-4 -5e-4,-5e-4 -6.9e-4,-6.9e-4 l 5e-4,6.9e-4 c -3.10519,2.7893 -4.1691,7.20461 -2.6749,11.1021 1.49409,3.8974 5.2366,6.46989 9.41071,6.4687 h 11.52939 c 0.7575,0 1.37151,0.614 1.37151,1.3713 0,0.7576 -0.61401,1.3716 -1.37151,1.3716 H 93.5629 v 8.7075 h 10.1187 c 5.5667,0 10.0794,-4.5126 10.0794,-10.0793 0,-5.5666 -4.5127,-10.0793 -10.0794,-10.0793 H 92.15221 c -0.75761,0 -1.37171,-0.6141 -1.37171,-1.3716 0,-0.7576 0.61411,-1.3718 1.37171,-1.3718 h 5.75059 c 0.0045,0 0.0097,4e-4 0.01431,4e-4 5.2449,0.002 10.027,-2.5827 12.9404,-6.7097 0.0187,-0.0266 0.0356,-0.0542 0.0542,-0.0808 0.21651,-0.3108 0.424,-0.6287 0.6188,-0.9563 0.0406,-0.0679 0.0768,-0.1389 0.1164,-0.2078 0.16631,-0.2893 0.3275,-0.5822 0.476,-0.8837 0.0559,-0.1131 0.1052,-0.2303 0.1585,-0.345 0.1219,-0.2632 0.24191,-0.5271 0.3499,-0.7986 0.064,-0.1602 0.1192,-0.3249 0.17831,-0.488 0.0647,-0.1792 0.1376,-0.354 0.1961,-0.5369 0.018,-0.0559 0.0315,-0.1177 0.0488,-0.1746 0.015,-0.0485 0.0348,-0.0947 0.0494,-0.1433 h -5e-4 c -0.0139,0.0462 -0.0326,0.0899 -0.0468,0.136 0.5881,-1.935 0.8157,-4.3574 0.7032,-6.8257 v -4.9655 h 4.1676 v -8.7078 -5e-4 z m -2.71291,24.9736 c 0.0128,-0.018 0.0245,-0.03709 0.0372,-0.0556 -0.0128,0.0183 -0.0243,0.0376 -0.0372,0.0556 z m 0.67301,-1.038 c 0.0348,-0.0584 0.066,-0.1194 0.1001,-0.1785 -0.0341,0.0591 -0.0652,0.1201 -0.1001,0.1785 z m 0.5924,-1.0928 c 0.0506,-0.1028 0.0956,-0.2092 0.14411,-0.3135 -0.0486,0.104 -0.0933,0.2107 -0.14411,0.3135 z m 0.5074,-1.1426 c 0.0602,-0.1514 0.11271,-0.3069 0.1684,-0.46069 -0.0559,0.15379 -0.10801,0.30959 -0.1684,0.46069 z"
           transform="translate(439.08804,-104.38496)"
           stroke-width="0"
           stroke-linejoin="miter"
           stroke-miterlimit="2"
           fill="#005a2e"
           stroke="#005a2e"
           id="path275"
           style="fill:#ffffff" />
        <path
           class="c3"
           d="m 97.9171,72.705 c -8.7502,0 -15.8437,7.0935 -15.8437,15.8438 0,8.75 7.09351,15.84351 15.8437,15.84351 8.7503,0 15.8437,-7.09351 15.8437,-15.84351 0,-8.7503 -7.0934,-15.8438 -15.8437,-15.8438 z m 0,22.9795 c -3.9411,0 -7.13589,-3.1948 -7.13589,-7.1359 0,-3.941 3.19479,-7.136 7.13589,-7.136 3.94111,0 7.136,3.195 7.136,7.136 0,3.9411 -3.19489,7.1359 -7.136,7.1359 z"
           transform="translate(439.08804,-104.38496)"
           stroke-width="0"
           stroke-linejoin="miter"
           stroke-miterlimit="2"
           fill="#a7d135"
           stroke="#a7d135"
           id="path277"
           style="fill:#ffffff" />
        <path
           class="c2"
           d="m 107.11721,75.6664 c -1.33672,1.5435 -2.07011,3.5191 -2.06411,5.5611 v 7.3222 c 0,0.0181 -0.003,0.03571 -0.003,0.054 -0.027,3.5237 -2.6079,6.4314 -5.9829,6.9797 -0.3753,0.0613 -0.7577,0.10181 -1.1503,0.1023 h -5.76489 c -2.48551,-0.0022 -4.883,0.9182 -6.72921,2.5823 2.89921,3.7212 7.41121,6.12431 12.4941,6.12431 0.497,0 0.9868,-0.0296 1.47211,-0.0745 0.08309,-0.008 0.16649,-0.0137 0.24929,-0.023 0.4584,-0.0493 0.9106,-0.1191 1.3564,-0.207 0.1006,-0.0198 0.2001,-0.0432 0.3001,-0.0649 0.4031,-0.0877 0.8009,-0.189 1.1919,-0.3064 0.0758,-0.023 0.1522,-0.044 0.2276,-0.0679 0.3909,-0.1243 0.7728,-0.2681 1.14989,-0.4209 0.12881,-0.0525 0.25771,-0.1045 0.3849,-0.1599 0.3718,-0.16261 0.7368,-0.3372 1.093,-0.5266 0.1204,-0.0642 0.2375,-0.1333 0.35609,-0.2005 0.2919,-0.165 0.5781,-0.3386 0.8582,-0.5214 0.0974,-0.0635 0.1975,-0.1231 0.2934,-0.1885 0.33321,-0.228 0.6541,-0.4722 0.9683,-0.7241 0.1136,-0.0913 0.2261,-0.1839 0.3372,-0.2781 0.307,-0.2605 0.6069,-0.5288 0.8931,-0.8118 0.0854,-0.08421 0.16579,-0.174 0.2493,-0.26051 0.2257,-0.2331 0.4436,-0.47359 0.6547,-0.7204 0.0944,-0.1104 0.1908,-0.219 0.2823,-0.3323 0.2439,-0.3013 0.4752,-0.613 0.69691,-0.9319 0.1317,-0.1899 0.25349,-0.3877 0.37759,-0.5837 0.1255,-0.1988 0.2496,-0.3982 0.3664,-0.6028 0.1179,-0.2066 0.2293,-0.4173 0.3388,-0.6294 0.10661,-0.2078 0.2071,-0.419 0.30461,-0.6323 0.0994,-0.2159 0.19679,-0.43269 0.28669,-0.6541 0.1487,-0.3686 0.2898,-0.7412 0.411,-1.1228 0.0126,-0.04491 0.0242,-0.09081 0.0376,-0.1348 0.008,-0.0249 0.0164,-0.049 0.0253,-0.0732 5e-4,-0.002 8e-4,-0.0037 10e-4,-0.0054 -0.009,0.0235 -0.0172,0.0471 -0.0246,0.0713 0.4143,-1.3633 0.6401,-2.9741 0.7037,-4.66669 -0.004,-5.31131 -2.62907,-9.99931 -6.64307,-12.87141 z"
           transform="translate(439.08804,-104.38496)"
           stroke-width="0"
           stroke-linejoin="miter"
           stroke-miterlimit="2"
           fill="#009b45"
           stroke="#009b45"
           id="path279"
           style="fill:#ffffff" />
      </g>
      <g
         id="path441910"
         aria-label="e"
         transform="matrix(1.86,0,0,1.86,-440.28971,409.4448)"
         style="fill:#ffffff">
        <path
           class="c1"
           d="m 116.0751,97.8764 -1.7101,-4.0444 -0.0271,-0.0638 -0.005,-0.0127 -0.0227,-0.0532 -0.005,-0.0119 -0.0271,-0.0621 -0.006,-0.0139 -0.0184,-0.0417 -0.0155,-0.0347 -0.007,-0.0156 c -0.42471,-0.9465 -0.9411,-1.8494 -1.5418,-2.6956 h -0.001 l -28.5481,11.7923 c 0.4275,2.6113 1.51711,5.0693 3.1648,7.1399 z"
           transform="translate(476.75235,-115.79715)"
           stroke-width="0"
           stroke-linejoin="miter"
           stroke-miterlimit="2"
           fill="#005a2e"
           stroke="#005a2e"
           id="path282"
           style="fill:#ffffff" />
        <path
           class="c3"
           d="m 100.0834,106.9648 c -1.2924,0.0464 -2.5696,-0.2903 -3.6713,-0.9676 l -0.2869,0.1185 -5e-4,2e-4 10e-5,-2e-4 0.2868,-0.1185 c -0.0915,-0.059 -0.1814,-0.1208 -0.2694,-0.1853 -1.5765,-1.1504 -3.49689,-3.1806 -3.0646,-6.8845 v -0.0085 c 0.2644,-2.4275 1.7998,-4.5313 4.0312,-5.5232 0.7793,-0.3443 1.6224,-0.5205 2.47449,-0.5176 1.5269,0.0022 3.0102,0.5103 4.2178,1.4451 0.0455,0.03851 0.0906,0.0783 0.1354,0.1194 l 10e-4,-3e-4 c 2.3178,2.1238 3.3523,7.04 3.3567,7.0623 l 8.78081,-3.6282 -1.7101,-4.0444 -0.0271,-0.0638 -0.005,-0.0127 -0.0227,-0.0532 -0.005,-0.0119 -0.0271,-0.0621 -0.006,-0.0139 -0.0184,-0.0417 -0.0155,-0.0347 -0.007,-0.0156 c -0.0174,-0.0386 -0.04,-0.0747 -0.0577,-0.1133 -0.1779,-0.3896 -0.37251,-0.76781 -0.5788,-1.1377 -0.0625,-0.1118 -0.1289,-0.2209 -0.194,-0.331 -0.1911,-0.324 -0.3924,-0.6392 -0.6044,-0.9463 -0.0377,-0.0545 -0.0685,-0.1133 -0.1069,-0.1673 h -0.001 l -0.006,0.0025 c -2.9332,-4.1358 -7.7213,-6.6785 -12.9175,-6.6714 l 0.0038,-0.0015 c -8.7462,0.0095 -15.8342,7.0974 -15.844,15.8435 0,0.8943 0.0913,1.7622 0.2313,2.6123 l -0.0161,0.007 c 0.0216,0.1318 0.0522,0.2612 0.0772,0.3921 0.0239,0.1254 0.0469,0.2507 0.0737,0.375 0.0923,0.4272 0.2004,0.8496 0.328,1.2661 0.034,0.1111 0.0733,0.219 0.1096,0.3288 0.1137,0.3435 0.2392,0.6824 0.3765,1.0166 0.0439,0.10719 0.0842,0.2159 0.13039,0.32159 0.1686,0.38551 0.3552,0.7627 0.5547,1.1333 0.066,0.12251 0.1353,0.2426 0.2045,0.3632 0.18121,0.3162 0.37251,0.6265 0.5762,0.9297 0.0479,0.0713 0.0914,0.1458 0.1405,0.2163 0.189,0.2715 0.3868,0.5374 0.5935,0.7972 l 4e-4,-3.1e-4 c 1e-4,0 1e-4,0 1e-4,3.1e-4 l 0.0127,-0.005 c -1e-4,-2e-4 -2e-4,-2e-4 -2e-4,-2e-4 l 5e-4,2e-4 h -3e-4 c 2.9622,3.7222 7.6069,6.0899 12.9365,6.0899 4.7249,0 8.5142,-1.5076 12.6639,-5.0403 l -5.64301,-6.6314 c -2.57178,2.18801 -4.58028,2.79281 -7.19208,2.79281 z"
           transform="translate(476.75235,-115.79715)"
           stroke-width="0"
           stroke-linejoin="miter"
           stroke-miterlimit="2"
           fill="#a7d135"
           stroke="#a7d135"
           id="path284"
           style="fill:#ffffff" />
        <path
           class="c2"
           d="m 112.6825,90.8293 -8.74651,3.6128 c 2.1e-4,2e-4 3.1e-4,2e-4 5e-4,5e-4 l 10e-4,-3e-4 c 2.3143,2.1206 3.3488,7.0239 3.3564,7.0608 l 8.78111,-3.62669 -1.7101,-4.04441 -0.0271,-0.0638 -0.005,-0.0127 -0.0227,-0.0532 -0.005,-0.0119 -0.0271,-0.0621 -0.006,-0.0139 -0.0184,-0.0417 -0.0155,-0.0347 -0.007,-0.0156 c -0.0174,-0.0386 -0.04,-0.0747 -0.0577,-0.1133 -0.1363,-0.2983 -0.2898,-0.58501 -0.4433,-0.8716 -0.047,-0.0879 -0.0869,-0.1792 -0.1356,-0.2663 -0.0624,-0.1116 -0.1288,-0.2207 -0.1939,-0.3308 -0.12939,-0.2195 -0.2704,-0.4292 -0.4094,-0.6409 -0.1028,-0.1563 -0.1936,-0.3201 -0.3019,-0.4727 h -0.001 l -0.006,0.0025 h -1e-4 z"
           transform="translate(476.75235,-115.79715)"
           stroke-width="0"
           stroke-linejoin="miter"
           stroke-miterlimit="2"
           fill="#009b45"
           stroke="#009b45"
           id="path286"
           style="fill:#ffffff" />
        <path
           class="c2"
           d="m 87.3054,109.7587 0.0125,-0.005 v 0 0 l 9.0945,-3.7561 c -1e-4,0 -2e-4,-3e-4 -3e-4,-3e-4 l -0.2869,0.1185 -5e-4,2e-4 10e-5,-2e-4 0.2868,-0.1185 c -0.0915,-0.059 -0.1814,-0.1208 -0.2694,-0.1853 -1.5765,-1.1504 -3.49689,-3.1806 -3.0646,-6.8845 v -2e-4 l -8.9375,3.6919 c 0.0216,0.1318 0.0522,0.2612 0.0772,0.3921 0.003,0.0161 0.0064,0.0319 0.0094,0.0481 0.0212,0.1093 0.041,0.21889 0.0645,0.3276 0.0922,0.427 0.2003,0.8491 0.3278,1.2654 0.034,0.1111 0.0733,0.219 0.1096,0.3288 0.1137,0.3435 0.2392,0.6824 0.3765,1.0166 0.0439,0.10719 0.0842,0.2159 0.13039,0.32159 0.1686,0.38551 0.3551,0.7627 0.5546,1.1333 0.007,0.0127 0.0146,0.0254 0.0217,0.0385 0.0596,0.1089 0.121,0.2168 0.1829,0.32471 0.1811,0.31599 0.3722,0.626 0.5757,0.92899 0.0483,0.0718 0.092,0.1465 0.1414,0.21751 0.1888,0.27129 0.3865,0.53709 0.5931,0.7967 l 4e-4,-3.1e-4 h 1.1e-4 z"
           transform="translate(476.75235,-115.79715)"
           stroke-width="0"
           stroke-linejoin="miter"
           stroke-miterlimit="2"
           fill="#009b45"
           stroke="#009b45"
           id="path288"
           style="fill:#ffffff" />
      </g>
      <g
         id="path441912"
         aria-label="o"
         transform="matrix(1.86,0,0,1.86,-440.28971,409.4448)"
         style="fill:#ffffff">
        <path
           class="c1"
           d="m 100.0007,84.1562 c -6.4082,-3e-4 -12.1856,3.8599 -14.638,9.7803 -2.4523,5.9204 -1.0969,12.7351 3.43439,17.2664 4.5313,4.5313 11.346,5.8868 17.2665,3.43439 5.9204,-2.4524 9.7805,-8.2298 9.7802,-14.638 C 115.8335,91.2537 108.7463,84.1666 100.0007,84.1562 m 0,22.9785 c -2.88651,2.1e-4 -5.4888,-1.7384 -6.5935,-4.405 -1.1048,-2.6668 -0.4943,-5.7364 1.54659,-7.7774 2.041,-2.0411 5.1106,-2.6518 7.7774,-1.5472 2.6667,1.1045 4.4055,3.7068 4.4055,6.5933 -0.004,3.9392 -3.19669,7.1315 -7.13599,7.1363"
           transform="translate(512.22132,-115.8362)"
           stroke-width="0"
           stroke-linejoin="miter"
           stroke-miterlimit="2"
           fill="#005a2e"
           stroke="#005a2e"
           id="path291"
           style="fill:#ffffff" />
      </g>
    </g>
    <circle
       style="fill:none;fill-rule:evenodd;stroke:#ffffff;stroke-width:2.79711;stroke-miterlimit:4;stroke-dasharray:none;stroke-opacity:1"
       id="path456"
       cx="491.4053"
       cy="381.17346"
       r="28.176716" />
    <path
       style="fill:none;stroke:#ffffff;stroke-width:2;stroke-linecap:butt;stroke-linejoin:miter;stroke-miterlimit:4;stroke-dasharray:8, 2;stroke-dashoffset:0;stroke-opacity:1"
       d="m 472.68164,359.66552 c 7.95032,4.99512 15.8993,9.98939 22.2145,17.07706 6.31521,7.08767 10.9967,16.2677 15.67767,25.44672"
       id="path4195"
       inkscape:path-effect="#path-effect4197"
       inkscape:original-d="m 472.68164,359.66552 c 7.95015,4.99538 15.89913,9.98966 23.84743,14.98314 4.68268,9.18139 9.36416,18.36142 14.04474,27.54064"
       sodipodi:nodetypes="ccc" />
    <path
       style="fill:none;stroke:#ffffff;stroke-width:2;stroke-linecap:butt;stroke-linejoin:miter;stroke-miterlimit:4;stroke-dasharray:8, 2;stroke-dashoffset:0;stroke-opacity:1"
       d="m 463.62903,389.45767 c 6.69433,-7.76516 13.38598,-15.52721 20.68602,-20.72452 7.30004,-5.1973 15.20465,-7.82666 23.10828,-10.45568"
       id="path4195-9"
       inkscape:path-effect="#path-effect4197-2"
       inkscape:original-d="m 463.62903,389.45767 c 6.69539,-7.76424 13.38704,-15.52629 20.07997,-23.29198 7.90649,-2.62865 15.8111,-5.258 23.71433,-7.88822"
       sodipodi:nodetypes="ccc" />
    <path
       style="fill:none;stroke:#ffffff;stroke-width:2;stroke-linecap:butt;stroke-linejoin:miter;stroke-miterlimit:4;stroke-dasharray:8, 2;stroke-dashoffset:0;stroke-opacity:1"
       d="m 467.16303,396.05607 c 8.53203,-4.22721 17.06016,-8.45249 25.68972,-9.82649 8.62956,-1.37399 17.35593,0.10417 26.08075,1.58208"
       id="path4195-9-1"
       inkscape:path-effect="#path-effect4197-2-5"
       inkscape:original-d="m 467.16303,396.05607 c 8.53263,-4.22601 17.06075,-8.45129 25.59079,-12.67901 8.72835,1.47933 17.45472,2.9575 26.17968,4.4346"
       sodipodi:nodetypes="ccc" />
  </g>
</svg>
