<svg xmlns="http://www.w3.org/2000/svg" viewBox="0 0 431.898 136.222"><g transform="translate(-296.013 -315.835)"><g font-family="Brandmark Sans 4 Spectrum" font-size="72" font-weight="700" style="line-height:1;font-variant-ligatures:normal;text-align:center" text-anchor="middle"><g aria-label="a"><path fill="#a7d135" d="M338.763 350.52h16.197v58.937h-16.197z" class="c3"/><path fill="#005a2e" d="M338.764 353.682a29.288 29.288 0 0 0-13.273-3.162 29.469 29.469 0 0 0-19.783 51.318 29.469 29.469 0 0 0 33.056 4.458 29.502 29.502 0 0 0 16.196-26.307 29.503 29.503 0 0 0-16.196-26.307Zm-8.194 38.571a13.274 13.274 0 1 1-5.08-25.537c7.327.009 13.265 5.946 13.274 13.273 0 5.37-3.234 10.21-8.194 12.264z" class="c1"/><path fill="#009b45" d="M338.764 353.682v52.614a29.502 29.502 0 0 0 16.196-26.307 29.504 29.504 0 0 0-16.196-26.307z" class="c2"/></g><g aria-label="u"><path fill="#005a2e" d="M401.176 350.52v33.086a9.696 9.696 0 0 1-9.697 9.697c-5.355 0-9.697-4.341-9.697-9.697V350.52h-16.195v33.086a25.894 25.894 0 0 0 35.59 24.008 25.935 25.935 0 0 0 16.196-24.008V350.52Z" class="c1"/><path fill="#a7d135" d="M401.176 350.52h16.197v58.978h-16.197z" class="c3"/><path fill="#009b45" d="M401.176 350.52v57.094a25.935 25.935 0 0 0 16.197-24.008V350.52Z" class="c2"/></g><g aria-label="t"><path fill="#005a2e" d="M446.45 315.835h-16.195v77.787c.01 8.75 7.1 15.84 15.85 15.85h8.098v-16.197h-7.752z" class="c1"/><path fill="#a7d135" d="M430.254 366.732h23.949v-16.197h-28.647v16.197z" class="c3"/><path fill="#009b45" d="M446.451 366.732v-16.197h-16.197v16.197h16.197z" class="c2"/></g><g aria-label="g"><path fill="#005a2e" d="M587.66 350.52a15.74 15.74 0 0 0-11.205 4.64c-.277.277-.543.562-.796.856l.001.002a15.73 15.73 0 0 0-3.848 10.354v13.62c-.009 7.326-5.946 13.264-13.273 13.272h-10.722a18.669 18.669 0 0 0-12.529 4.813 18.74 18.74 0 0 0 12.529 32.682h21.444a2.55 2.55 0 1 1 0 5.102h-18.82v16.196h18.82c10.355 0 18.749-8.393 18.749-18.747s-8.394-18.748-18.748-18.748h-21.445a2.551 2.551 0 1 1 0-5.103h10.696l.027.001c9.755.004 18.65-4.804 24.069-12.48.035-.05.066-.1.1-.15.404-.578.79-1.17 1.152-1.779.075-.126.143-.258.216-.386.31-.539.61-1.083.886-1.644.104-.21.195-.428.294-.642.227-.49.45-.98.651-1.485.12-.298.222-.605.332-.908.12-.333.256-.658.365-.999.033-.103.058-.218.09-.324.028-.09.065-.176.092-.267-.026.086-.061.167-.088.253 1.094-3.599 1.518-8.105 1.308-12.696v-9.235h7.752V350.52zm-5.045 46.451c.024-.034.045-.069.07-.103-.025.034-.046.07-.07.103zm1.252-1.93c.064-.11.122-.223.186-.333-.064.11-.121.224-.186.332zm1.102-2.033c.094-.192.177-.39.268-.583-.09.193-.174.391-.268.583zm.943-2.126c.112-.281.21-.57.314-.856-.104.286-.201.575-.314.856z" class="c1"/><path fill="#a7d135" d="M558.54 350.52c-16.276 0-29.47 13.194-29.47 29.47 0 16.275 13.194 29.468 29.47 29.468 16.275 0 29.47-13.193 29.47-29.468 0-16.276-13.195-29.47-29.47-29.47zm0 42.742c-7.33 0-13.273-5.942-13.273-13.273 0-7.33 5.942-13.273 13.273-13.273 7.33 0 13.273 5.943 13.273 13.273s-5.943 13.273-13.273 13.273z" class="c3"/><path fill="#009b45" d="M575.652 356.028a15.731 15.731 0 0 0-3.84 10.344v13.62c0 .033-.005.066-.005.1-.05 6.554-4.85 11.962-11.128 12.982-.698.114-1.41.19-2.14.19h-10.722a18.67 18.67 0 0 0-12.517 4.803c5.393 6.922 13.785 11.391 23.24 11.391.924 0 1.835-.055 2.738-.138.154-.015.31-.026.463-.043a29.152 29.152 0 0 0 2.523-.385c.187-.037.372-.08.558-.12a29.56 29.56 0 0 0 2.217-.57c.141-.043.283-.082.424-.127a29.513 29.513 0 0 0 2.138-.783c.24-.097.48-.194.716-.297a29.54 29.54 0 0 0 2.033-.98c.224-.119.442-.248.663-.373a28.73 28.73 0 0 0 1.596-.97c.181-.117.367-.228.546-.35.62-.424 1.216-.878 1.8-1.347a29.486 29.486 0 0 0 2.288-2.027c.16-.157.31-.324.465-.485a28.1 28.1 0 0 0 1.217-1.34c.176-.205.355-.407.526-.618.453-.56.883-1.14 1.296-1.733.245-.353.471-.721.702-1.086.234-.37.464-.74.682-1.12a28.856 28.856 0 0 0 1.197-2.347 28.981 28.981 0 0 0 1.297-3.306c.024-.083.045-.168.07-.25a3.446 3.446 0 0 1 .003-.014c.77-2.536 1.19-5.532 1.309-8.68-.007-9.879-4.89-18.599-12.356-23.94z" class="c2"/></g><g aria-label="e"><path fill="#005a2e" d="m662.37 376.112-3.181-7.522-.05-.119-.01-.024-.042-.099-.01-.022-.05-.115-.011-.026-.034-.078-.03-.064-.012-.03a29.52 29.52 0 0 0-2.868-5.013h-.002l-53.1 21.934a28.8 28.8 0 0 0 5.887 13.28z" class="c1"/><path fill="#a7d135" d="M632.625 393.017c-2.404.086-4.78-.54-6.829-1.8l-.533.22h-.001l.533-.22a10.08 10.08 0 0 1-.5-.345c-2.933-2.14-6.505-5.916-5.701-12.805v-.016a12.754 12.754 0 0 1 7.498-10.273 11.31 11.31 0 0 1 4.603-.963c2.84.004 5.599.95 7.845 2.688a8.4 8.4 0 0 1 .252.222h.001c4.312 3.95 6.236 13.094 6.244 13.136l16.332-6.749-3.18-7.522-.051-.119-.01-.024-.042-.099-.009-.022-.05-.115-.011-.026-.035-.078-.028-.064-.013-.03c-.033-.071-.075-.138-.108-.21a29.515 29.515 0 0 0-1.076-2.116c-.117-.208-.24-.411-.361-.616a29.274 29.274 0 0 0-1.124-1.76c-.07-.101-.128-.21-.2-.311h-.001l-.011.005c-5.456-7.693-14.362-12.422-24.027-12.41l.007-.002c-16.268.018-29.451 13.201-29.47 29.469 0 1.663.17 3.278.43 4.859l-.03.013c.04.245.098.486.144.73.045.232.088.465.137.697.172.794.373 1.58.61 2.355.064.206.137.407.204.611.212.639.445 1.27.7 1.891.082.2.157.402.243.598.314.717.66 1.419 1.032 2.108.123.228.252.451.38.676.337.588.693 1.165 1.072 1.729.09.133.17.271.261.402.352.505.72 1 1.104 1.483h.001l.024-.01c5.51 6.924 14.149 11.328 24.062 11.328 8.788 0 15.836-2.804 23.554-9.375l-10.496-12.334c-4.783 4.07-8.519 5.194-13.377 5.194z" class="c3"/><path fill="#009b45" d="m656.06 363.005-16.27 6.72h.003c4.305 3.944 6.23 13.064 6.243 13.133l16.333-6.746-3.18-7.522-.051-.119-.01-.024-.042-.099-.009-.022-.05-.115-.011-.026-.035-.078-.028-.064-.013-.03c-.033-.071-.075-.138-.108-.21a28.73 28.73 0 0 0-.824-1.621c-.088-.164-.162-.333-.253-.495-.116-.208-.24-.411-.36-.616-.24-.408-.503-.798-.762-1.192-.19-.29-.36-.595-.561-.88h-.002l-.011.006zm-47.202 35.208.023-.009 16.916-6.986-.534.22h-.001l.533-.22c-.17-.11-.337-.226-.5-.346-2.933-2.14-6.505-5.915-5.701-12.805l-16.624 6.867c.04.245.097.486.144.73l.017.089c.04.203.077.407.12.609.172.794.373 1.58.61 2.354.063.206.136.407.204.611.211.639.445 1.27.7 1.891.082.2.157.402.243.598.313.717.66 1.419 1.031 2.108l.04.072c.111.202.226.403.34.604.338.587.693 1.164 1.072 1.728.09.133.17.272.263.404.35.505.718 1 1.103 1.482z" class="c2"/></g><path fill="#005a2e" d="M698.443 350.52a29.469 29.469 0 1 0 29.468 29.468c-.019-16.267-13.2-29.449-29.468-29.468m0 42.74a13.274 13.274 0 1 1 13.273-13.274c-.007 7.327-5.946 13.265-13.273 13.274" aria-label="o" class="c1"/></g><circle cx="491.405" cy="381.173" r="28.177" fill="none" stroke="#005a2e" stroke-width="2.797"/><path fill="none" stroke="#005a2e" stroke-dasharray="8 2" stroke-width="2" d="M472.682 359.666c7.95 4.995 15.899 9.989 22.214 17.077 6.315 7.087 10.997 16.267 15.678 25.446"/><path fill="none" stroke="#005a2e" stroke-dasharray="8 2" stroke-width="2" d="M463.629 389.458c6.694-7.765 13.386-15.528 20.686-20.725 7.3-5.197 15.205-7.827 23.108-10.456m-40.26 37.779c8.532-4.227 17.06-8.452 25.69-9.826 8.63-1.374 17.356.104 26.08 1.582"/></g></svg>