<?xml version="1.0" standalone="no"?>
<!DOCTYPE svg PUBLIC "-//W3C//DTD SVG 20010904//EN"
 "http://www.w3.org/TR/2001/REC-SVG-20010904/DTD/svg10.dtd">
<svg version="1.0" xmlns="http://www.w3.org/2000/svg"
 width="700.000000pt" height="700.000000pt" viewBox="0 0 700.000000 700.000000"
 preserveAspectRatio="xMidYMid meet">
<metadata>
Created by potrace 1.14, written by Peter Selinger 2001-2017
</metadata>
<g transform="translate(0.000000,700.000000) scale(0.100000,-0.100000)"
fill="#000000" stroke="none">
<path d="M3278 6996 c-1 -2 -39 -6 -83 -10 -800 -62 -1600 -436 -2176 -1019
-293 -296 -553 -671 -704 -1017 -25 -58 -50 -114 -55 -125 -45 -93 -150 -427
-176 -560 -2 -11 -10 -54 -19 -95 -29 -147 -36 -198 -52 -370 -15 -163 -8
-591 12 -711 2 -13 6 -46 9 -74 12 -105 35 -222 72 -370 26 -104 82 -289 94
-315 5 -8 25 -60 45 -115 62 -165 249 -531 312 -610 4 -6 34 -49 65 -95 171
-256 432 -534 708 -755 92 -74 370 -265 386 -265 4 0 15 -6 23 -14 26 -22 241
-131 363 -184 291 -126 610 -217 907 -258 25 -3 57 -8 71 -10 163 -25 682 -25
842 1 13 2 46 7 73 10 71 10 87 13 115 18 14 3 43 8 65 12 325 59 741 212
1039 384 49 28 91 51 93 51 10 0 268 180 353 247 151 118 324 281 450 422 36
41 70 79 75 85 62 67 240 317 320 450 179 298 346 717 411 1031 16 75 54 300
60 350 4 33 9 76 11 95 8 71 10 517 3 595 -17 172 -22 220 -25 225 -2 3 -6 30
-10 60 -3 30 -10 71 -15 90 -5 19 -12 51 -15 70 -12 71 -66 270 -101 376 -104
312 -227 563 -410 839 -430 649 -1063 1136 -1799 1383 -109 37 -337 98 -440
118 -22 4 -42 8 -45 9 -3 0 -30 5 -60 9 -30 4 -64 10 -75 12 -11 2 -49 6 -85
10 -36 3 -78 8 -95 11 -33 5 -531 13 -537 9z m537 -341 c411 -51 719 -138
1053 -296 46 -22 80 -43 78 -48 -3 -5 -18 -12 -33 -16 -46 -11 -596 -207 -650
-231 -17 -8 -35 -14 -40 -14 -35 -1 -32 -20 38 -196 39 -98 75 -194 81 -212 5
-18 15 -35 21 -37 7 -3 66 16 132 41 139 53 490 176 774 271 l199 67 68 -56
c357 -293 688 -737 874 -1171 72 -170 156 -428 184 -567 24 -119 35 -182 40
-220 3 -25 8 -54 10 -65 26 -136 27 -664 1 -794 -2 -14 -7 -47 -10 -75 -3 -28
-7 -52 -9 -53 -11 -12 -412 115 -875 276 -113 40 -208 68 -211 64 -14 -15
-141 -425 -137 -438 3 -7 16 -15 29 -17 13 -3 115 -38 228 -78 316 -111 573
-194 710 -231 69 -18 129 -36 134 -40 9 -8 -45 -165 -92 -269 -71 -159 -94
-206 -157 -315 -101 -175 -241 -374 -363 -513 l-38 -44 -35 69 c-20 37 -84
163 -144 278 -59 116 -111 215 -115 220 -4 6 -38 69 -75 140 -37 72 -71 135
-75 140 -4 6 -29 51 -55 100 -27 50 -68 123 -92 163 -24 41 -43 75 -43 78 0 2
-13 25 -29 51 -15 27 -61 103 -101 171 -40 67 -75 122 -78 122 -3 0 -56 -30
-119 -67 -62 -38 -121 -73 -131 -78 -9 -6 -50 -30 -89 -54 l-72 -43 15 -31 c9
-16 34 -60 57 -96 43 -71 277 -481 277 -486 0 -2 17 -34 39 -72 98 -175 491
-933 491 -949 0 -19 -216 -172 -377 -267 -341 -202 -780 -357 -1138 -401 -27
-4 -57 -8 -65 -11 -45 -11 -210 -19 -400 -19 -192 0 -273 4 -390 19 -19 3 -53
7 -75 10 -134 17 -380 76 -545 131 -187 63 -490 201 -582 265 -14 11 -29 19
-32 19 -18 0 -345 229 -392 274 -6 6 -40 36 -75 66 -167 144 -358 357 -499
555 -83 117 -87 124 -178 285 -180 318 -325 744 -368 1080 -4 30 -8 66 -10 80
-26 181 -25 616 0 770 3 14 7 48 11 75 11 90 57 298 92 419 141 487 399 934
757 1310 l65 69 270 -172 c231 -147 536 -348 753 -497 31 -21 56 -42 55 -45
-1 -4 -62 -55 -134 -114 -73 -59 -133 -111 -133 -116 0 -6 230 -285 291 -353
4 -5 36 16 71 45 35 30 79 65 97 79 18 14 38 30 44 36 60 54 413 298 552 381
211 127 435 244 735 387 25 11 46 22 48 23 3 1 -176 423 -183 431 -5 5 -202
-88 -390 -184 -176 -90 -391 -210 -509 -285 l-60 -37 -25 19 c-45 35 -114 84
-196 139 -44 30 -82 57 -85 61 -8 9 -493 328 -652 429 -82 51 -148 96 -148
100 0 18 292 192 450 267 205 99 502 202 680 237 199 39 283 52 415 62 44 4
82 8 84 10 6 6 452 -4 506 -11z"/>
<path d="M3263 4650 l-151 -179 86 -77 c206 -185 397 -377 558 -559 97 -109
264 -314 264 -323 0 -5 -42 -14 -92 -21 -115 -16 -295 -53 -447 -92 -118 -31
-390 -117 -403 -129 -6 -5 99 -311 144 -420 l11 -25 156 52 c249 82 490 136
716 158 39 4 79 9 90 11 26 5 370 5 415 0 19 -2 67 -7 105 -11 39 -4 79 -9 90
-11 63 -12 103 -18 129 -18 32 -1 34 4 50 101 3 18 10 52 15 75 6 24 12 57 15
73 3 17 14 69 24 117 l19 87 -26 6 c-47 10 -75 15 -121 21 -25 3 -54 8 -65 10
-17 3 -57 8 -165 19 -14 2 -33 3 -42 4 -10 1 -43 36 -74 79 -107 145 -321 421
-344 442 -3 3 -20 23 -39 45 -144 170 -428 461 -617 633 -104 95 -125 112
-139 111 -5 0 -78 -81 -162 -179z"/>
<path d="M1529 4302 c-177 -180 -342 -355 -499 -531 -41 -46 -84 -94 -95 -107
-58 -64 -270 -308 -325 -374 -25 -29 -50 -58 -55 -64 -50 -54 -127 -147 -124
-150 2 -2 29 -25 59 -51 64 -55 73 -63 201 -173 l97 -82 48 58 c27 31 51 59
54 62 3 3 59 68 124 145 66 77 124 145 130 150 6 6 38 42 71 80 33 39 64 75
70 81 55 61 164 181 178 198 62 71 247 266 403 425 137 140 179 188 170 197
-42 45 -299 304 -309 313 -10 8 -57 -34 -198 -177z"/>
<path d="M2445 2994 c-148 -74 -349 -179 -442 -230 -26 -15 -122 -69 -213
-119 -91 -51 -183 -103 -205 -115 -22 -12 -137 -78 -255 -145 -118 -67 -254
-144 -302 -170 -49 -26 -88 -49 -88 -52 0 -3 15 -32 34 -66 51 -92 101 -182
148 -269 l41 -77 31 16 c17 9 139 77 271 151 132 74 260 146 285 160 25 14 50
28 55 32 6 4 35 21 65 38 30 16 128 70 217 120 206 116 433 236 596 314 70 34
127 64 127 68 0 20 -192 415 -202 417 -7 1 -80 -32 -163 -73z"/>
</g>
</svg>
